<svg width="1110" height="2009" viewBox="0 0 1110 2009" fill="none" xmlns="http://www.w3.org/2000/svg">
<g clip-path="url(#clip0_1654_923)">
<rect width="1110" height="2009" rx="108" fill="black"/>
<path fill-rule="evenodd" clip-rule="evenodd" d="M100 -1075.46C100 -1132.64 146.357 -1179 203.542 -1179C260.726 -1179 307.084 -1132.64 307.084 -1075.46C307.084 -1026.64 273.292 -985.705 227.822 -974.779C217.256 -972.24 208.634 -963.5 208.634 -952.633V-906.329C208.634 -895.463 217.256 -886.722 227.822 -884.183C273.292 -873.257 307.084 -832.327 307.084 -783.504C307.084 -734.235 272.671 -693.002 226.57 -682.532C216.315 -680.203 207.715 -671.999 208.732 -661.532C208.9 -659.808 209.099 -658.063 209.329 -656.301C211.469 -639.913 216.251 -622.401 223.05 -606.362V-606.362C226.14 -599.072 235.704 -598.042 241.884 -602.989C253.028 -611.91 265.868 -617.236 279.834 -617.236C307.914 -617.236 323.265 -598.143 323.489 -578.435C323.6 -568.707 320.003 -558.908 312.553 -551.541C305.063 -544.136 294.022 -539.518 279.834 -539.518C265.28 -539.518 252.162 -547.235 241.168 -558.618C239.807 -560.026 238.473 -561.497 237.164 -563.026C233.162 -567.704 225.65 -567.548 222.929 -562.026V-562.026C215.014 -545.959 209.848 -526.933 208.45 -507.111C207.713 -496.642 216.351 -488.474 226.585 -486.148C272.678 -475.672 307.084 -434.444 307.084 -385.18C307.084 -336.357 273.292 -295.427 227.822 -284.501C217.256 -281.962 208.634 -273.221 208.634 -262.355V-216.051C208.634 -205.184 217.256 -196.444 227.822 -193.905C273.292 -182.979 307.084 -142.048 307.084 -93.2257C307.084 -43.9561 272.671 -2.72397 226.57 7.7461C216.315 10.0752 207.715 18.2791 208.732 28.7461C208.899 30.4706 209.099 32.2154 209.329 33.9778C211.469 50.366 216.251 67.8772 223.05 83.917V83.917C226.14 91.2062 235.704 92.237 241.884 87.2893C253.028 78.3684 265.868 73.0427 279.834 73.0427C307.914 73.0427 323.265 92.1356 323.489 111.844C323.6 121.572 320.003 131.371 312.553 138.737C305.063 146.143 294.022 150.761 279.834 150.761C265.28 150.761 252.162 143.043 241.168 131.661C239.807 130.252 238.473 128.781 237.164 127.252C233.162 122.575 225.65 122.731 222.929 128.253V128.253C213.367 147.663 207.816 171.393 208.077 195.625C208.183 205.47 216.447 212.751 226.059 214.882C272.416 225.163 307.084 266.517 307.084 315.969C307.084 373.153 260.726 419.51 203.542 419.51C146.357 419.51 100 373.153 100 315.969C100 267.845 132.83 227.389 177.316 215.777C188.77 212.787 197.675 202.481 197.918 190.645C198.412 166.561 204.216 143.191 213.794 123.752C214.68 121.953 215.602 120.182 216.558 118.444C220.359 111.529 220.757 103.132 217.342 96.0185C216.062 93.3524 214.838 90.6393 213.673 87.8917C206.527 71.0333 201.494 52.6304 199.23 35.2966C199.014 33.6416 198.822 31.9927 198.657 30.3524C197.533 19.2218 188.895 9.90025 178.05 7.15456C133.192 -4.20223 100 -44.8377 100 -93.2257C100 -141.727 133.347 -182.439 178.365 -193.685C188.824 -196.298 197.318 -204.999 197.318 -215.781V-262.625C197.318 -273.406 188.824 -282.107 178.365 -284.721C133.347 -295.967 100 -336.679 100 -385.18C100 -433.564 133.187 -474.198 178.04 -485.558C188.913 -488.312 197.508 -497.666 198.366 -508.849C199.961 -529.642 205.443 -549.578 213.794 -566.527C214.68 -568.326 215.602 -570.096 216.557 -571.835C220.359 -578.75 220.757 -587.146 217.342 -594.26C216.062 -596.926 214.838 -599.639 213.673 -602.387C206.527 -619.245 201.494 -637.648 199.23 -654.982C199.014 -656.637 198.823 -658.286 198.657 -659.926C197.533 -671.057 188.895 -680.378 178.05 -683.124C133.192 -694.481 100 -735.116 100 -783.504C100 -832.005 133.347 -872.717 178.365 -883.964C188.824 -886.577 197.318 -895.278 197.318 -906.059V-952.903C197.318 -963.685 188.824 -972.386 178.365 -974.999C133.347 -986.245 100 -1026.96 100 -1075.46ZM245.631 -592.844C239.081 -587.082 238.606 -577.165 244.203 -570.474C245.606 -568.797 247.037 -567.201 248.493 -565.693C258.418 -555.418 269.064 -549.702 279.834 -549.702C291.739 -549.702 300.075 -553.526 305.392 -558.783C310.748 -564.08 313.387 -571.164 313.306 -578.319C313.146 -592.378 302.405 -607.052 279.834 -607.052C267.646 -607.052 255.949 -601.919 245.631 -592.844ZM248.493 124.585C247.037 123.078 245.606 121.482 244.203 119.805C238.606 113.113 239.081 103.197 245.631 97.4347C255.949 88.3593 267.646 83.2272 279.834 83.2272C302.405 83.2272 313.146 97.9011 313.306 111.96C313.387 119.115 310.748 126.199 305.392 131.495C300.075 136.753 291.739 140.576 279.834 140.576C269.064 140.576 258.418 134.861 248.493 124.585Z" fill="url(#paint0_linear_1654_923)"/>
<rect x="100" y="-196.768" width="207.084" height="207.084" rx="103.542" fill="#ECBEB4"/>
<rect opacity="0.4" x="347.821" y="-46.4888" width="261.668" height="48.3651" rx="13.6414" fill="#ECBEB4"/>
<rect opacity="0.68" x="360.427" y="58.6509" width="158.737" height="48.3651" rx="13.6414" fill="#EDBFB5"/>
<rect opacity="0.68" x="360.427" y="114.937" width="215.783" height="38.4441" rx="13.6414" fill="#EDBFB5"/>
<mask id="mask0_1654_923" style="mask-type:alpha" maskUnits="userSpaceOnUse" x="161" y="34" width="173" height="144">
<rect x="161.107" y="34.0801" width="172.004" height="143.714" fill="#D9D9D9"/>
</mask>
<g mask="url(#mask0_1654_923)">
<path fill-rule="evenodd" clip-rule="evenodd" d="M199.075 34.0803C199.102 34.2943 199.129 34.5085 199.156 34.7227C200.558 45.7429 203.084 57.1941 206.557 68.4036C210.798 82.0918 216.489 95.5385 223.363 107.463C217.47 115.933 212.474 125.543 208.537 135.797C203.605 148.642 200.223 162.718 198.738 177.277C198.72 177.449 198.703 177.621 198.686 177.794H161.107V34.0803H199.075ZM209.342 34.0803H199.075C197 17.2665 197.514 1.14253 201.583 -11.6016L211.285 -8.5035C207.787 2.45274 207.191 17.181 209.259 33.4373C209.286 33.6514 209.314 33.8657 209.342 34.0803ZM209.342 34.0803H333.11V177.794H208.923C210.346 164.299 213.5 151.285 218.045 139.447C221.207 131.211 224.993 123.641 229.28 116.906C231.164 119.666 233.117 122.307 235.136 124.811C247.319 139.918 262.561 150.761 279.834 150.761C294.022 150.761 305.063 146.143 312.553 138.738C320.003 131.371 323.6 121.572 323.489 111.844C323.265 92.1359 307.914 73.0431 279.834 73.0431C260.655 73.0431 243.61 83.0549 230.136 98.7031C224.609 88.4769 219.912 77.0934 216.285 65.3895C213.043 54.9246 210.68 44.2794 209.342 34.0803ZM208.923 177.794C208.905 177.966 208.887 178.138 208.869 178.311C207.296 193.727 207.988 209.705 211.407 225.219L201.461 227.411C197.83 210.931 197.079 194.043 198.686 177.794H208.923ZM243.064 118.418C240.473 115.205 237.985 111.722 235.613 108.018C248.021 92.4896 263.492 83.2275 279.834 83.2275C302.405 83.2275 313.146 97.9014 313.306 111.96C313.387 119.115 310.748 126.199 305.392 131.496C300.075 136.753 291.739 140.577 279.834 140.577C267.033 140.577 254.402 132.476 243.064 118.418Z" fill="black"/>
</g>
<rect x="100" y="213" width="207.084" height="207.084" rx="103.542" fill="#ECB4B4"/>
<rect opacity="0.68" x="347.821" y="221.439" width="612" height="48.3651" rx="13.6414" fill="#ECB4B4"/>
<rect opacity="0.5" x="347.821" y="280.966" width="194.701" height="48.3651" rx="13.6414" fill="#ECB4B4"/>
<line opacity="0.36" x1="347.821" y1="345.739" x2="959.821" y2="345.739" stroke="#ECB4B4" stroke-width="1.1316"/>
<rect opacity="0.4" x="347.821" y="363.279" width="261.668" height="48.3651" rx="13.6414" fill="#ECB4B4"/>
<path fill-rule="evenodd" clip-rule="evenodd" d="M100 675.542C100 618.357 146.357 572 203.542 572C260.726 572 307.084 618.357 307.084 675.542C307.084 724.365 273.292 765.295 227.822 776.221C217.256 778.76 208.634 787.5 208.634 798.367V844.671C208.634 855.537 217.256 864.278 227.822 866.817C273.292 877.743 307.084 918.673 307.084 967.496C307.084 1016.77 272.671 1058 226.57 1068.47C216.315 1070.8 207.715 1079 208.732 1089.47C208.9 1091.19 209.099 1092.94 209.329 1094.7C211.469 1111.09 216.251 1128.6 223.05 1144.64V1144.64C226.14 1151.93 235.704 1152.96 241.884 1148.01C253.028 1139.09 265.868 1133.76 279.834 1133.76C307.914 1133.76 323.265 1152.86 323.489 1172.57C323.6 1182.29 320.003 1192.09 312.553 1199.46C305.063 1206.86 294.022 1211.48 279.834 1211.48C265.28 1211.48 252.162 1203.76 241.168 1192.38C239.807 1190.97 238.473 1189.5 237.164 1187.97C233.162 1183.3 225.65 1183.45 222.929 1188.97V1188.97C215.014 1205.04 209.848 1224.07 208.45 1243.89C207.713 1254.36 216.351 1262.53 226.585 1264.85C272.678 1275.33 307.084 1316.56 307.084 1365.82C307.084 1414.64 273.292 1455.57 227.822 1466.5C217.256 1469.04 208.634 1477.78 208.634 1488.65V1534.95C208.634 1545.82 217.256 1554.56 227.822 1557.1C273.292 1568.02 307.084 1608.95 307.084 1657.77C307.084 1707.04 272.671 1748.28 226.57 1758.75C216.315 1761.08 207.715 1769.28 208.732 1779.75C208.899 1781.47 209.099 1783.22 209.329 1784.98C211.469 1801.37 216.251 1818.88 223.05 1834.92V1834.92C226.14 1842.21 235.704 1843.24 241.884 1838.29C253.028 1829.37 265.868 1824.04 279.834 1824.04C307.914 1824.04 323.265 1843.14 323.489 1862.84C323.6 1872.57 320.003 1882.37 312.553 1889.74C305.063 1897.14 294.022 1901.76 279.834 1901.76C265.28 1901.76 252.162 1894.04 241.168 1882.66C239.807 1881.25 238.473 1879.78 237.164 1878.25C233.162 1873.58 225.65 1873.73 222.929 1879.25V1879.25C213.367 1898.66 207.816 1922.39 208.077 1946.63C208.183 1956.47 216.447 1963.75 226.059 1965.88C272.416 1976.16 307.084 2017.52 307.084 2066.97C307.084 2124.15 260.726 2170.51 203.542 2170.51C146.357 2170.51 100 2124.15 100 2066.97C100 2018.85 132.83 1978.39 177.316 1966.78C188.77 1963.79 197.675 1953.48 197.918 1941.65C198.412 1917.56 204.216 1894.19 213.794 1874.75C214.68 1872.95 215.602 1871.18 216.558 1869.44C220.359 1862.53 220.757 1854.13 217.342 1847.02C216.062 1844.35 214.838 1841.64 213.673 1838.89C206.527 1822.03 201.494 1803.63 199.23 1786.3C199.014 1784.64 198.822 1782.99 198.657 1781.35C197.533 1770.22 188.895 1760.9 178.05 1758.15C133.192 1746.8 100 1706.16 100 1657.77C100 1609.27 133.347 1568.56 178.365 1557.31C188.824 1554.7 197.318 1546 197.318 1535.22V1488.37C197.318 1477.59 188.824 1468.89 178.365 1466.28C133.347 1455.03 100 1414.32 100 1365.82C100 1317.44 133.187 1276.8 178.04 1265.44C188.913 1262.69 197.508 1253.33 198.366 1242.15C199.961 1221.36 205.443 1201.42 213.794 1184.47C214.68 1182.67 215.602 1180.9 216.557 1179.17C220.359 1172.25 220.757 1163.85 217.342 1156.74C216.062 1154.07 214.838 1151.36 213.673 1148.61C206.527 1131.75 201.494 1113.35 199.23 1096.02C199.014 1094.36 198.823 1092.71 198.657 1091.07C197.533 1079.94 188.895 1070.62 178.05 1067.88C133.192 1056.52 100 1015.88 100 967.496C100 918.995 133.347 878.283 178.365 867.036C188.824 864.423 197.318 855.722 197.318 844.941V798.097C197.318 787.315 188.824 778.614 178.365 776.001C133.347 764.755 100 724.043 100 675.542ZM245.631 1158.16C239.081 1163.92 238.606 1173.83 244.203 1180.53C245.606 1182.2 247.037 1183.8 248.493 1185.31C258.418 1195.58 269.064 1201.3 279.834 1201.3C291.739 1201.3 300.075 1197.47 305.392 1192.22C310.748 1186.92 313.387 1179.84 313.306 1172.68C313.146 1158.62 302.405 1143.95 279.834 1143.95C267.646 1143.95 255.949 1149.08 245.631 1158.16ZM248.493 1875.59C247.037 1874.08 245.606 1872.48 244.203 1870.8C238.606 1864.11 239.081 1854.2 245.631 1848.43C255.949 1839.36 267.646 1834.23 279.834 1834.23C302.405 1834.23 313.146 1848.9 313.306 1862.96C313.387 1870.12 310.748 1877.2 305.392 1882.5C300.075 1887.75 291.739 1891.58 279.834 1891.58C269.064 1891.58 258.418 1885.86 248.493 1875.59Z" fill="url(#paint1_linear_1654_923)"/>
<rect x="100" y="572" width="207.084" height="207.084" rx="103.542" fill="#5A8F96"/>
<rect opacity="0.68" x="347.821" y="580.44" width="606.846" height="48.3651" rx="13.6414" fill="#5A8F96"/>
<rect opacity="0.5" x="347.821" y="639.966" width="194.701" height="48.3651" rx="13.6414" fill="#5A8F96"/>
<line x1="347.821" y1="704.74" x2="954.667" y2="704.74" stroke="#5A8F96" stroke-opacity="0.36" stroke-width="1.1316"/>
<rect opacity="0.4" x="347.821" y="722.279" width="261.668" height="48.3651" rx="13.6414" fill="#5A8F96"/>
<rect x="100" y="1554.23" width="207.084" height="207.084" rx="103.542" fill="#ECBEB4"/>
<rect opacity="0.68" x="347.821" y="1562.67" width="606.846" height="48.3651" rx="13.6414" fill="#ECBEB4"/>
<rect opacity="0.5" x="347.821" y="1622.2" width="194.701" height="48.3651" rx="13.6414" fill="#ECBEB4"/>
<line opacity="0.36" x1="347.821" y1="1686.97" x2="954.667" y2="1686.97" stroke="#ECBEB4" stroke-width="1.1316"/>
<rect opacity="0.4" x="347.821" y="1704.51" width="261.668" height="48.3651" rx="13.6414" fill="#ECBEB4"/>
<rect x="100" y="863.954" width="207.084" height="207.084" rx="103.542" fill="#649C8B"/>
<rect opacity="0.68" x="347.821" y="872.394" width="606.846" height="48.3651" rx="13.6414" fill="#649C8B"/>
<rect opacity="0.5" x="347.821" y="931.92" width="194.701" height="48.3651" rx="13.6414" fill="#649C8B"/>
<line opacity="0.36" x1="347.821" y1="996.693" x2="954.667" y2="996.693" stroke="#649C8B" stroke-width="1.1316"/>
<rect opacity="0.4" x="347.821" y="1014.23" width="261.668" height="48.3651" rx="13.6414" fill="#649C8B"/>
<rect x="100" y="1262.28" width="207.084" height="207.084" rx="103.542" fill="#89AF9C"/>
<rect opacity="0.68" x="347.821" y="1270.72" width="606.846" height="48.3651" rx="13.6414" fill="#89AF9C"/>
<rect opacity="0.5" x="347.821" y="1330.24" width="194.701" height="48.3651" rx="13.6414" fill="#89AF9C"/>
<line opacity="0.36" x1="347.821" y1="1395.02" x2="954.667" y2="1395.02" stroke="#89AF9C" stroke-width="1.1316"/>
<rect opacity="0.4" x="347.821" y="1412.56" width="261.668" height="48.3651" rx="13.6414" fill="#89AF9C"/>
<rect opacity="0.68" x="360.269" y="1120.83" width="158.737" height="48.3651" rx="13.6414" fill="#77A694"/>
<rect opacity="0.68" x="360.269" y="1177.11" width="215.783" height="38.4441" rx="13.6414" fill="#77A694"/>
<rect opacity="0.68" x="360.427" y="1809.65" width="158.737" height="48.3651" rx="13.6414" fill="#EDBFB5"/>
<rect opacity="0.68" x="360.427" y="1865.94" width="215.783" height="38.4441" rx="13.6414" fill="#EDBFB5"/>
<mask id="mask1_1654_923" style="mask-type:alpha" maskUnits="userSpaceOnUse" x="161" y="1094" width="173" height="145">
<rect x="161.107" y="1094.8" width="172.004" height="143.714" fill="#D9D9D9"/>
</mask>
<g mask="url(#mask1_1654_923)">
<path fill-rule="evenodd" clip-rule="evenodd" d="M199.075 1094.8C199.102 1095.02 199.129 1095.23 199.156 1095.44C200.558 1106.46 203.084 1117.92 206.557 1129.12C210.798 1142.81 216.489 1156.26 223.363 1168.18C217.47 1176.65 212.474 1186.26 208.537 1196.52C203.605 1209.36 200.223 1223.44 198.737 1238C198.72 1238.17 198.703 1238.34 198.686 1238.52H161.107V1094.8H199.075ZM209.342 1094.8H199.075C197 1077.99 197.514 1061.86 201.583 1049.12L211.285 1052.22C207.786 1063.17 207.191 1077.9 209.259 1094.16C209.286 1094.37 209.314 1094.59 209.342 1094.8ZM209.342 1094.8H333.11V1238.52H208.923C210.346 1225.02 213.5 1212.01 218.045 1200.17C221.207 1191.93 224.993 1184.36 229.28 1177.63C231.164 1180.39 233.117 1183.03 235.136 1185.53C247.319 1200.64 262.561 1211.48 279.834 1211.48C294.022 1211.48 305.063 1206.86 312.553 1199.46C320.003 1192.09 323.6 1182.29 323.489 1172.57C323.265 1152.86 307.914 1133.76 279.834 1133.76C260.655 1133.76 243.61 1143.78 230.136 1159.42C224.609 1149.2 219.912 1137.81 216.285 1126.11C213.043 1115.65 210.68 1105 209.342 1094.8ZM208.923 1238.52C208.905 1238.69 208.887 1238.86 208.869 1239.03C207.296 1254.45 207.988 1270.43 211.407 1285.94L201.461 1288.13C197.83 1271.65 197.078 1254.76 198.686 1238.52H208.923ZM243.064 1179.14C240.473 1175.93 237.985 1172.44 235.613 1168.74C248.021 1153.21 263.492 1143.95 279.834 1143.95C302.405 1143.95 313.146 1158.62 313.306 1172.68C313.387 1179.84 310.748 1186.92 305.392 1192.22C300.075 1197.47 291.739 1201.3 279.834 1201.3C267.033 1201.3 254.402 1193.2 243.064 1179.14Z" fill="black"/>
</g>
<mask id="mask2_1654_923" style="mask-type:alpha" maskUnits="userSpaceOnUse" x="161" y="1785" width="173" height="144">
<rect x="161.107" y="1785.08" width="172.004" height="143.714" fill="#D9D9D9"/>
</mask>
<g mask="url(#mask2_1654_923)">
<path fill-rule="evenodd" clip-rule="evenodd" d="M199.075 1785.08C199.102 1785.29 199.129 1785.51 199.156 1785.72C200.558 1796.74 203.084 1808.19 206.557 1819.4C210.798 1833.09 216.489 1846.54 223.363 1858.46C217.47 1866.93 212.474 1876.54 208.537 1886.8C203.605 1899.64 200.223 1913.72 198.738 1928.28C198.72 1928.45 198.703 1928.62 198.686 1928.79H161.107V1785.08H199.075ZM209.342 1785.08H199.075C197 1768.27 197.514 1752.14 201.583 1739.4L211.285 1742.5C207.787 1753.45 207.191 1768.18 209.259 1784.44C209.286 1784.65 209.314 1784.87 209.342 1785.08ZM209.342 1785.08H333.11V1928.79H208.923C210.346 1915.3 213.5 1902.29 218.045 1890.45C221.207 1882.21 224.993 1874.64 229.28 1867.91C231.164 1870.67 233.117 1873.31 235.136 1875.81C247.319 1890.92 262.561 1901.76 279.834 1901.76C294.022 1901.76 305.063 1897.14 312.553 1889.74C320.003 1882.37 323.6 1872.57 323.489 1862.84C323.265 1843.14 307.914 1824.04 279.834 1824.04C260.655 1824.04 243.61 1834.05 230.136 1849.7C224.609 1839.48 219.912 1828.09 216.285 1816.39C213.043 1805.92 210.68 1795.28 209.342 1785.08ZM208.923 1928.79C208.905 1928.97 208.887 1929.14 208.869 1929.31C207.296 1944.73 207.988 1960.71 211.407 1976.22L201.461 1978.41C197.83 1961.93 197.079 1945.04 198.686 1928.79H208.923ZM243.064 1869.42C240.473 1866.21 237.985 1862.72 235.613 1859.02C248.021 1843.49 263.492 1834.23 279.834 1834.23C302.405 1834.23 313.146 1848.9 313.306 1862.96C313.387 1870.12 310.748 1877.2 305.392 1882.5C300.075 1887.75 291.739 1891.58 279.834 1891.58C267.033 1891.58 254.402 1883.48 243.064 1869.42Z" fill="black"/>
</g>
<rect x="100" y="1964" width="207.084" height="207.084" rx="103.542" fill="#ECB4B4"/>
<rect opacity="0.68" x="347.821" y="1972.44" width="612" height="48.3651" rx="13.6414" fill="#ECB4B4"/>
<rect opacity="0.3" x="95" y="480" width="206" height="41" rx="13.6414" fill="black" fill-opacity="0.46"/>
</g>
<defs>
<linearGradient id="paint0_linear_1654_923" x1="429.863" y1="-1054.52" x2="425.336" y2="-79.6464" gradientUnits="userSpaceOnUse">
<stop offset="0.0522522" stop-color="#5A8F96"/>
<stop offset="0.178692" stop-color="#649C8B"/>
<stop offset="0.380779" stop-color="#649C8B"/>
<stop offset="0.584127" stop-color="#89AF9C"/>
<stop offset="0.791699" stop-color="#89AF9C"/>
<stop offset="0.880242" stop-color="#ECBEB4"/>
<stop offset="1" stop-color="#ECB4B4"/>
</linearGradient>
<linearGradient id="paint1_linear_1654_923" x1="429.863" y1="696.476" x2="425.336" y2="1671.35" gradientUnits="userSpaceOnUse">
<stop offset="0.0522522" stop-color="#5A8F96"/>
<stop offset="0.178692" stop-color="#649C8B"/>
<stop offset="0.380779" stop-color="#649C8B"/>
<stop offset="0.584127" stop-color="#89AF9C"/>
<stop offset="0.791699" stop-color="#89AF9C"/>
<stop offset="0.880242" stop-color="#ECBEB4"/>
<stop offset="1" stop-color="#ECB4B4"/>
</linearGradient>
<clipPath id="clip0_1654_923">
<rect width="1110" height="2009" rx="108" fill="white"/>
</clipPath>
</defs>
</svg>
