<svg width="41" height="70" viewBox="0 0 41 70" fill="none" xmlns="http://www.w3.org/2000/svg">
<path fill-rule="evenodd" clip-rule="evenodd" d="M13.3379 20.3688L3.40549 17.371V17.1453C3.40549 10.6802 8.64648 5.43921 15.1116 5.43921H24.8075C26.8661 5.43921 28.8006 5.97059 30.4813 6.90367L25.6906 16.5556C24.9749 15.6881 23.8916 15.1351 22.6792 15.1351H17.24C15.0849 15.1351 13.3379 16.8821 13.3379 19.0371V20.3688Z" fill="#6295A9"/>
<path fill-rule="evenodd" clip-rule="evenodd" d="M13.3379 21.4352V28.9986C10.4034 29.7114 7.84123 31.3762 5.99682 33.6474C4.3684 31.4471 3.40549 28.7245 3.40549 25.777V18.4419L13.3379 21.4352Z" fill="#6295A9"/>
<path fill-rule="evenodd" clip-rule="evenodd" d="M13.3379 47.4156L3.40549 50.268V42.804C3.40549 39.8376 4.38084 37.0989 6.02834 34.8912C7.83389 37.2215 10.3919 38.9394 13.3379 39.6807V47.4156Z" fill="#6295A9"/>
<path fill-rule="evenodd" clip-rule="evenodd" d="M13.3379 48.5711L13.2197 48.5389L3.40549 51.2623V52.973C3.40549 59.4381 8.64647 64.6791 15.1116 64.6791H24.8075C26.97 64.6791 28.9954 64.0928 30.7337 63.0704L25.7212 53.525C25.006 54.4141 23.909 54.9831 22.6791 54.9831H17.24C15.0849 54.9831 13.3379 53.2361 13.3379 51.0811V48.5711Z" fill="#6295A9"/>
<path fill-rule="evenodd" clip-rule="evenodd" d="M31.6227 62.4917L26.3506 52.4058C26.4998 51.9922 26.5812 51.5461 26.5812 51.0811V39.6807C29.5272 38.9394 32.0852 37.2215 33.8908 34.8912C35.5383 37.0989 36.5136 39.8376 36.5136 42.804V52.973C36.5136 56.8956 34.5843 60.3676 31.6227 62.4917Z" fill="#6295A9"/>
<path fill-rule="evenodd" clip-rule="evenodd" d="M33.4149 34.2905C30.9856 37.1822 27.3426 39.0203 23.2704 39.0203H16.6487C12.5765 39.0203 8.9335 37.1822 6.50418 34.2905C8.93351 31.3988 12.5765 29.5608 16.6487 29.5608H23.2704C27.3426 29.5608 30.9856 31.3988 33.4149 34.2905Z" fill="#6295A9"/>
</svg>
